<svg width="239" height="112" viewBox="0 0 239 112" fill="none" xmlns="http://www.w3.org/2000/svg">
<path d="M65.4979 108.297C65.1383 75.4211 64.6999 17.7613 65.2869 3.23057C65.3645 1.30819 66.8905 0 68.8144 0C71.1261 0 73 1.87394 73 4.18556V108.248C73 110.32 71.3203 112 69.2484 112C67.1931 112 65.5204 110.353 65.4979 108.297Z" fill="white"/>
<path d="M52.4714 85.3162C52.1303 66.1665 51.7434 34.7895 52.2284 24.9494C52.3175 23.1427 53.7188 22 55.5278 22C57.9977 22 60 24.0023 60 26.4722V85.2341C60 87.3139 58.3139 89 56.2341 89C54.1822 89 52.508 87.3678 52.4714 85.3162Z" fill="white"/>
<path d="M78.3951 93.3561C78.0982 85.3002 77.8181 73.9815 78.1504 69.2131C78.251 67.7696 79.362 67 80.809 67C83.6759 67 86 69.3241 86 72.191V93.1903C86 95.2943 84.2943 97 82.1903 97C80.1492 97 78.4702 95.3958 78.3951 93.3561Z" fill="white"/>
<path d="M91.1174 71.5921C90.9873 70.1089 90.9398 68.639 91.1092 67.7725C91.2267 67.1712 91.8502 67 92.4629 67H95C97.2091 67 99 68.7909 99 71C99 73.2091 97.195 75 94.9859 75C93.0073 75 91.2904 73.5631 91.1174 71.5921Z" fill="white"/>
<path d="M39.4231 71.3349C39.1107 60.8985 38.796 45.4665 39.1704 39.4621C39.2687 37.8856 40.4731 37 42.0527 37C44.785 37 47 39.215 47 41.9473V71.207C47 73.3018 45.3018 75 43.207 75C41.1617 75 39.4843 73.3793 39.4231 71.3349Z" fill="white"/>
<path d="M13.4231 71.3349C13.1107 60.8985 12.796 45.4665 13.1704 39.4621C13.2687 37.8856 14.4731 37 16.0527 37C18.785 37 21 39.215 21 41.9473V71.207C21 73.3018 19.3018 75 17.207 75C15.1617 75 13.4843 73.3793 13.4231 71.3349Z" fill="white"/>
<path d="M26.289 60.4286C26.05 56.5238 25.8739 51.8359 26.1155 49.4816C26.2209 48.4549 27.0825 48 28.1146 48C31.365 48 34 50.635 34 53.8854V60.121C34 62.2633 32.2633 64 30.121 64C28.0984 64 26.4126 62.4475 26.289 60.4286Z" fill="white"/>
<path d="M0.289027 59.4286C0.050034 55.5238 -0.126074 50.8359 0.115513 48.4816C0.220864 47.4549 1.08255 47 2.1146 47C5.36502 47 8 49.635 8 52.8854V59.121C8 61.2633 6.26331 63 4.121 63C2.09837 63 0.412591 61.4475 0.289027 59.4286Z" fill="white"/>
<path d="M87.7943 43.752L103.442 43.8C103.378 39.896 103.282 36.04 103.154 32.232C101.97 32.008 100.546 31.624 98.8823 31.08L99.0263 29.4H111.026C111.57 30.424 111.842 31.384 111.842 32.28C110.242 32.408 108.962 32.472 108.002 32.472L107.474 59.736L111.506 60.12C111.506 61.016 111.234 61.976 110.69 63H99.6503L99.5063 61.32C101.01 60.808 102.482 60.424 103.922 60.168L103.538 46.824H87.6983C87.6343 52.584 87.6023 56.888 87.6023 59.736L91.6343 60.12C91.6343 61.016 91.3623 61.976 90.8183 63H79.7783L79.6343 61.32C81.1383 60.808 82.6103 60.424 84.0503 60.168C83.7303 47.752 83.4743 38.44 83.2823 32.232C82.0983 32.008 80.6743 31.624 79.0103 31.08L79.1543 29.4H91.1543C91.6983 30.424 91.9703 31.384 91.9703 32.28C90.3703 32.408 89.0903 32.472 88.1303 32.472C88.0343 34.904 87.9223 38.664 87.7943 43.752ZM123.753 32.712L123.513 44.28H131.097L131.481 40.824C132.377 40.824 133.337 41.096 134.361 41.64V50.76L132.681 50.904C132.201 49.528 131.881 48.376 131.721 47.448H123.513C123.449 50.232 123.385 54.344 123.321 59.784H134.313L135.465 55.272L138.249 55.464C138.697 57.288 138.921 58.904 138.921 60.312C138.921 61.688 138.889 62.584 138.825 63H115.497L115.353 61.32C116.761 60.808 118.121 60.44 119.433 60.216C119.241 47.736 119.081 38.456 118.953 32.376C118.249 32.312 116.841 31.928 114.729 31.224L114.969 29.4H138.105C138.169 29.816 138.201 30.456 138.201 31.32C138.201 33.08 137.977 34.984 137.529 37.032C136.825 37.192 135.897 37.272 134.745 37.272L133.593 32.712H123.753ZM168.188 55.464C168.284 55.656 168.412 56.392 168.572 57.672C168.764 58.952 168.86 60.04 168.86 60.936C168.86 61.8 168.812 62.488 168.716 63H145.916L145.772 61.32C147.276 60.776 148.636 60.408 149.852 60.216C149.66 47.608 149.5 38.312 149.372 32.328C148.54 32.2 147.132 31.816 145.148 31.176L145.388 29.4H156.956C157.5 30.296 157.772 31.24 157.772 32.232C156.044 32.296 154.796 32.344 154.028 32.376C153.964 38.52 153.9 44.12 153.836 49.176C153.804 54.2 153.772 57.736 153.74 59.784H164.252L165.404 55.224C167.004 55.224 167.932 55.304 168.188 55.464ZM180.706 32.712L180.466 44.28H188.05L188.434 40.824C189.33 40.824 190.29 41.096 191.314 41.64V50.76L189.634 50.904C189.154 49.528 188.834 48.376 188.674 47.448H180.466C180.402 50.232 180.338 54.344 180.274 59.784H191.266L192.418 55.272L195.202 55.464C195.65 57.288 195.874 58.904 195.874 60.312C195.874 61.688 195.842 62.584 195.778 63H172.45L172.306 61.32C173.714 60.808 175.074 60.44 176.386 60.216C176.194 47.736 176.034 38.456 175.906 32.376C175.202 32.312 173.794 31.928 171.682 31.224L171.922 29.4H195.058C195.122 29.816 195.154 30.456 195.154 31.32C195.154 33.08 194.93 34.984 194.482 37.032C193.778 37.192 192.85 37.272 191.698 37.272L190.546 32.712H180.706ZM228.453 32.232L218.565 45.672L228.933 59.832L233.013 60.12C233.013 61.016 232.741 61.976 232.197 63H219.621L219.477 61.32C220.917 60.808 222.341 60.424 223.749 60.168L215.925 48.648L208.485 59.832L212.565 60.12C212.565 61.016 212.293 61.976 211.749 63H199.413L199.269 61.32C200.741 60.808 202.181 60.424 203.589 60.168L213.717 45.672L204.261 32.616L200.181 32.328C200.181 31.432 200.453 30.472 200.997 29.448H213.909L214.053 31.128C212.421 31.736 210.901 32.168 209.493 32.424L216.597 42.888L223.557 32.568L219.477 32.28C219.477 31.384 219.749 30.424 220.293 29.4H232.629L232.773 31.08C231.301 31.592 229.861 31.976 228.453 32.232Z" fill="white"/>
<path d="M142.015 78.224V78.464C142.036 78.816 142.031 79.1307 141.999 79.408C141.978 79.6427 141.924 79.856 141.839 80.048C141.764 80.24 141.647 80.336 141.487 80.336C141.402 80.336 141.327 80.2987 141.263 80.224C141.199 80.1493 141.146 80.0693 141.103 79.984C141.06 79.888 141.028 79.7973 141.007 79.712C140.986 79.6267 140.975 79.5733 140.975 79.552C140.975 79.4347 140.986 79.28 141.007 79.088C141.028 78.896 141.05 78.6987 141.071 78.496C141.092 78.2827 141.114 78.0747 141.135 77.872C141.167 77.6693 141.194 77.488 141.215 77.328C141.268 76.8053 141.306 76.336 141.327 75.92C141.348 75.4933 141.37 75.0933 141.391 74.72C141.274 75.104 141.135 75.4667 140.975 75.808C140.815 76.1387 140.634 76.432 140.431 76.688C140.228 76.9333 139.999 77.1307 139.743 77.28C139.498 77.4293 139.226 77.504 138.927 77.504C138.618 77.504 138.324 77.4187 138.047 77.248C137.77 77.0667 137.514 76.832 137.279 76.544C137.044 76.256 136.836 75.9307 136.655 75.568C136.484 75.1947 136.346 74.816 136.239 74.432C136.228 74.8587 136.212 75.232 136.191 75.552C136.18 75.872 136.17 76.1813 136.159 76.48C136.148 76.7787 136.138 77.0933 136.127 77.424C136.127 77.744 136.127 78.1227 136.127 78.56C136.127 78.7627 136.143 78.9387 136.175 79.088C136.218 79.2373 136.255 79.376 136.287 79.504C136.33 79.6213 136.367 79.7387 136.399 79.856C136.442 79.9627 136.463 80.0853 136.463 80.224C136.463 80.32 136.42 80.4267 136.335 80.544C136.25 80.672 136.116 80.736 135.935 80.736C135.85 80.736 135.775 80.672 135.711 80.544C135.647 80.4267 135.594 80.2773 135.551 80.096C135.508 79.9253 135.476 79.744 135.455 79.552C135.434 79.36 135.423 79.2 135.423 79.072V78.912L135.487 77.584C135.487 77.4667 135.492 77.3173 135.503 77.136C135.514 76.9547 135.524 76.7733 135.535 76.592C135.546 76.4 135.556 76.224 135.567 76.064C135.578 75.8933 135.583 75.76 135.583 75.664C135.562 75.216 135.535 74.7893 135.503 74.384C135.482 73.9787 135.46 73.5947 135.439 73.232L135.423 72.816C135.412 72.6987 135.46 72.6027 135.567 72.528C135.684 72.4427 135.818 72.3947 135.967 72.384C136.052 72.384 136.122 72.4373 136.175 72.544C136.218 72.5013 136.271 72.4693 136.335 72.448C136.399 72.4267 136.452 72.416 136.495 72.416C136.548 72.416 136.575 72.4267 136.575 72.448C136.586 72.4693 136.602 72.496 136.623 72.528C136.623 72.5387 136.639 72.6507 136.671 72.864C136.703 73.0773 136.751 73.3387 136.815 73.648C136.879 73.9573 136.964 74.288 137.071 74.64C137.178 74.992 137.311 75.3227 137.471 75.632C137.631 75.9307 137.823 76.1813 138.047 76.384C138.271 76.5867 138.532 76.688 138.831 76.688C139.151 76.688 139.455 76.5707 139.743 76.336C140.031 76.0907 140.282 75.7813 140.495 75.408C140.719 75.024 140.895 74.608 141.023 74.16C141.151 73.7013 141.215 73.2533 141.215 72.816V72.608C141.215 72.3093 141.236 72.1013 141.279 71.984C141.322 71.856 141.37 71.792 141.423 71.792C141.466 71.792 141.498 71.8027 141.519 71.824C141.519 71.6747 141.514 71.5627 141.503 71.488C141.503 71.4027 141.503 71.328 141.503 71.264C141.503 71.1787 141.556 71.104 141.663 71.04C141.77 70.976 141.882 70.944 141.999 70.944C142.17 70.944 142.255 71.1093 142.255 71.44C142.255 71.4933 142.25 71.5733 142.239 71.68C142.239 71.776 142.228 71.9413 142.207 72.176C142.175 72.9973 142.148 73.712 142.127 74.32C142.116 74.9173 142.106 75.4507 142.095 75.92C142.084 76.3787 142.074 76.7947 142.063 77.168C142.052 77.5307 142.036 77.8827 142.015 78.224ZM146.219 80.112C145.504 80.112 144.976 79.9147 144.635 79.52C144.293 79.1253 144.123 78.6347 144.123 78.048C144.123 77.536 144.213 76.9013 144.395 76.144C144.587 75.3867 144.853 74.7093 145.195 74.112C145.216 74.0693 145.301 73.9147 145.451 73.648C145.611 73.3707 145.787 73.1627 145.979 73.024C146.171 72.8747 146.373 72.8 146.587 72.8C146.683 72.8 146.768 72.8267 146.843 72.88C146.928 72.9227 146.971 72.9813 146.971 73.056C146.971 73.0773 146.939 73.1307 146.875 73.216C146.821 73.2907 146.779 73.3493 146.747 73.392C146.384 73.8293 146.091 74.2613 145.867 74.688C145.568 75.232 145.333 75.7707 145.163 76.304C145.003 76.8373 144.923 77.4187 144.923 78.048C144.923 78.8907 145.435 79.312 146.459 79.312C146.939 79.312 147.381 79.1733 147.786 78.896C148.203 78.6187 148.533 78.2827 148.779 77.888C149.024 77.4827 149.147 77.1147 149.147 76.784C149.147 76.4107 149.024 76.0853 148.779 75.808C148.533 75.5307 148.197 75.2373 147.771 74.928C147.493 74.7253 147.291 74.56 147.163 74.432C147.035 74.304 146.971 74.1973 146.971 74.112C146.971 73.984 147.061 73.8827 147.243 73.808C147.424 73.7227 147.637 73.68 147.883 73.68C148.021 73.68 148.112 73.6907 148.155 73.712C148.197 73.7227 148.219 73.7493 148.219 73.792C148.219 73.8133 148.197 73.8507 148.155 73.904C148.123 73.9467 148.107 73.984 148.107 74.016C148.107 74.048 148.213 74.1547 148.427 74.336C148.853 74.688 149.211 75.0453 149.499 75.408C149.787 75.7707 149.931 76.1973 149.931 76.688C149.931 77.104 149.776 77.584 149.467 78.128C149.157 78.672 148.72 79.1413 148.155 79.536C147.589 79.92 146.944 80.112 146.219 80.112ZM157.187 75.488C157.294 75.456 157.39 75.44 157.475 75.44C157.582 75.44 157.673 75.4613 157.747 75.504C157.822 75.5467 157.881 75.5947 157.923 75.648C157.966 75.7013 157.998 75.7547 158.019 75.808C158.041 75.8507 158.051 75.8773 158.051 75.888C158.051 75.92 158.019 75.9413 157.955 75.952C157.891 75.9627 157.817 75.9733 157.731 75.984C157.657 75.9947 157.577 76 157.491 76C157.406 76 157.347 76.0053 157.315 76.016L156.867 76.112C156.867 76.9227 156.862 77.68 156.851 78.384C156.841 79.088 156.825 79.6427 156.803 80.048C156.803 80.1973 156.777 80.32 156.723 80.416C156.67 80.5227 156.574 80.576 156.435 80.576C156.403 80.576 156.355 80.5493 156.291 80.496C156.227 80.4427 156.169 80.384 156.115 80.32C156.062 80.256 156.014 80.192 155.971 80.128C155.929 80.0747 155.907 80.0373 155.907 80.016C155.907 79.9733 155.939 79.9093 156.003 79.824C156.067 79.7387 156.105 79.6427 156.115 79.536C156.115 79.504 156.115 79.4293 156.115 79.312C156.115 79.1947 156.115 79.0613 156.115 78.912C156.126 78.7627 156.131 78.608 156.131 78.448C156.131 78.2773 156.131 78.1227 156.131 77.984C156.131 77.6853 156.126 77.3973 156.115 77.12C156.105 76.832 156.099 76.544 156.099 76.256C155.577 76.3413 155.006 76.4267 154.387 76.512C153.769 76.5973 153.187 76.6507 152.643 76.672V77.28C152.643 77.9307 152.665 78.496 152.707 78.976C152.75 79.4453 152.771 79.76 152.771 79.92C152.771 79.984 152.697 80.0427 152.547 80.096C152.409 80.1493 152.302 80.176 152.227 80.176C152.11 80.176 152.019 80.048 151.955 79.792C151.902 79.536 151.865 79.2267 151.843 78.864C151.833 78.4907 151.827 78.1013 151.827 77.696C151.838 77.2907 151.843 76.944 151.843 76.656C151.683 76.5813 151.603 76.448 151.603 76.256C151.603 76.1707 151.614 76.1013 151.635 76.048C151.667 75.9947 151.737 75.9627 151.843 75.952C151.843 75.312 151.854 74.7147 151.875 74.16C151.897 73.5947 151.934 73.1093 151.987 72.704C152.009 72.608 152.062 72.528 152.147 72.464C152.243 72.4 152.35 72.368 152.467 72.368C152.585 72.368 152.665 72.4213 152.707 72.528C152.75 72.6347 152.771 72.7467 152.771 72.864C152.739 73.3333 152.713 73.8347 152.691 74.368C152.67 74.9013 152.654 75.44 152.643 75.984C153.134 75.984 153.689 75.9627 154.307 75.92C154.937 75.8667 155.529 75.7973 156.083 75.712C156.073 74.976 156.051 74.2507 156.019 73.536C155.998 72.8107 155.987 72.08 155.987 71.344C155.987 71.28 156.041 71.216 156.147 71.152C156.265 71.088 156.377 71.0453 156.483 71.024C156.665 71.024 156.755 71.1307 156.755 71.344C156.798 71.9093 156.825 72.5653 156.835 73.312C156.857 74.048 156.867 74.8 156.867 75.568C156.963 75.5573 157.07 75.5307 157.187 75.488ZM161.172 80.512C160.831 80.512 160.548 80.4747 160.324 80.4C160.111 80.336 159.94 80.2453 159.812 80.128C159.684 80.0213 159.593 79.904 159.54 79.776C159.487 79.6373 159.46 79.504 159.46 79.376C159.46 79.2373 159.471 79.072 159.492 78.88C159.524 78.688 159.615 78.464 159.764 78.208C159.913 77.9413 160.143 77.6427 160.452 77.312C160.761 76.9707 161.199 76.5813 161.764 76.144C162.34 75.696 162.788 75.2747 163.108 74.88C163.439 74.4853 163.604 74.1227 163.604 73.792C163.604 73.4613 163.364 73.296 162.884 73.296C162.735 73.296 162.569 73.3173 162.388 73.36C162.217 73.392 162.052 73.4347 161.892 73.488C161.732 73.5307 161.588 73.5787 161.46 73.632C161.343 73.6747 161.263 73.7013 161.22 73.712C160.943 73.7973 160.708 73.888 160.516 73.984C160.324 74.0693 160.153 74.1493 160.004 74.224C159.865 74.2987 159.743 74.3573 159.636 74.4C159.54 74.4427 159.449 74.464 159.364 74.464C159.204 74.464 159.124 74.416 159.124 74.32C159.124 74.288 159.135 74.2453 159.156 74.192C159.188 74.1387 159.257 74.0693 159.364 73.984C159.471 73.8987 159.625 73.8027 159.828 73.696C160.031 73.5893 160.303 73.4613 160.644 73.312C161.337 73.024 161.913 72.848 162.372 72.784C162.831 72.7093 163.172 72.672 163.396 72.672C163.556 72.672 163.716 72.688 163.876 72.72C164.047 72.752 164.196 72.8053 164.324 72.88C164.463 72.9547 164.569 73.056 164.644 73.184C164.729 73.312 164.772 73.4773 164.772 73.68C164.772 73.9253 164.591 74.2827 164.228 74.752C163.865 75.2213 163.284 75.7707 162.484 76.4C162.057 76.7413 161.711 77.0507 161.444 77.328C161.177 77.5947 160.969 77.84 160.82 78.064C160.671 78.288 160.569 78.4853 160.516 78.656C160.463 78.8267 160.436 78.9813 160.436 79.12C160.436 79.2907 160.5 79.4507 160.628 79.6C160.767 79.7493 160.991 79.824 161.3 79.824C161.993 79.824 162.633 79.7067 163.22 79.472C163.807 79.2267 164.345 78.9013 164.836 78.496C165.017 78.3467 165.14 78.2667 165.204 78.256C165.268 78.2347 165.327 78.2187 165.38 78.208C165.401 78.208 165.423 78.2187 165.444 78.24C165.465 78.2507 165.476 78.2827 165.476 78.336C165.476 78.4747 165.348 78.6667 165.092 78.912C164.847 79.1573 164.521 79.3973 164.116 79.632C163.711 79.8667 163.252 80.0693 162.74 80.24C162.228 80.4213 161.705 80.512 161.172 80.512ZM168.453 80.112C167.738 80.112 167.21 79.9147 166.869 79.52C166.528 79.1253 166.357 78.6347 166.357 78.048C166.357 77.536 166.448 76.9013 166.629 76.144C166.821 75.3867 167.088 74.7093 167.429 74.112C167.45 74.0693 167.536 73.9147 167.685 73.648C167.845 73.3707 168.021 73.1627 168.213 73.024C168.405 72.8747 168.608 72.8 168.821 72.8C168.917 72.8 169.002 72.8267 169.077 72.88C169.162 72.9227 169.205 72.9813 169.205 73.056C169.205 73.0773 169.173 73.1307 169.109 73.216C169.056 73.2907 169.013 73.3493 168.981 73.392C168.618 73.8293 168.325 74.2613 168.101 74.688C167.802 75.232 167.568 75.7707 167.397 76.304C167.237 76.8373 167.157 77.4187 167.157 78.048C167.157 78.8907 167.669 79.312 168.693 79.312C169.173 79.312 169.616 79.1733 170.021 78.896C170.437 78.6187 170.768 78.2827 171.013 77.888C171.258 77.4827 171.381 77.1147 171.381 76.784C171.381 76.4107 171.258 76.0853 171.013 75.808C170.768 75.5307 170.432 75.2373 170.005 74.928C169.728 74.7253 169.525 74.56 169.397 74.432C169.269 74.304 169.205 74.1973 169.205 74.112C169.205 73.984 169.296 73.8827 169.477 73.808C169.658 73.7227 169.872 73.68 170.117 73.68C170.256 73.68 170.346 73.6907 170.389 73.712C170.432 73.7227 170.453 73.7493 170.453 73.792C170.453 73.8133 170.432 73.8507 170.389 73.904C170.357 73.9467 170.341 73.984 170.341 74.016C170.341 74.048 170.448 74.1547 170.661 74.336C171.088 74.688 171.445 75.0453 171.733 75.408C172.021 75.7707 172.165 76.1973 172.165 76.688C172.165 77.104 172.01 77.584 171.701 78.128C171.392 78.672 170.954 79.1413 170.389 79.536C169.824 79.92 169.178 80.112 168.453 80.112ZM174.126 78.784C174.339 78.3467 174.515 77.872 174.654 77.36C174.792 76.848 174.904 76.3413 174.99 75.84C175.075 75.3387 175.134 74.864 175.166 74.416C175.208 73.968 175.24 73.584 175.262 73.264L174.606 73.312C174.307 73.312 174.158 73.2 174.158 72.976C174.158 72.7947 174.254 72.6933 174.446 72.672L174.99 72.576C175.032 72.576 175.075 72.576 175.118 72.576C175.171 72.5653 175.224 72.56 175.278 72.56V72.416C175.299 72.3413 175.342 72.2827 175.406 72.24C175.47 72.1867 175.544 72.16 175.63 72.16C175.779 72.16 175.896 72.2347 175.982 72.384V72.544C176.312 72.5333 176.718 72.5173 177.198 72.496C177.678 72.4747 178.147 72.4373 178.606 72.384V72.352C178.606 72.1707 178.638 72.0373 178.702 71.952C178.776 71.856 178.862 71.808 178.958 71.808C179.043 71.808 179.123 71.8507 179.198 71.936C179.283 72.0107 179.326 72.128 179.326 72.288C179.422 72.2773 179.518 72.272 179.614 72.272C179.71 72.272 179.784 72.272 179.838 72.272C180.03 72.272 180.126 72.352 180.126 72.512C180.126 72.6613 180.083 72.8053 179.998 72.944C179.923 73.072 179.816 73.136 179.678 73.136C179.624 73.136 179.566 73.1253 179.502 73.104C179.448 73.0827 179.39 73.072 179.326 73.072V73.36C179.326 74.2133 179.326 75.008 179.326 75.744C179.326 76.4693 179.331 77.1147 179.342 77.68C179.352 78.2347 179.374 78.6987 179.406 79.072C179.448 79.4347 179.512 79.68 179.598 79.808C179.64 79.8933 179.662 79.984 179.662 80.08C179.662 80.1333 179.614 80.208 179.518 80.304C179.432 80.4 179.283 80.448 179.07 80.448C178.931 80.448 178.83 80.4107 178.766 80.336C178.712 80.2613 178.675 80.1653 178.654 80.048V80.064C178.59 79.7547 178.552 79.4453 178.542 79.136C178.542 78.816 178.542 78.5013 178.542 78.192C178.542 77.2213 178.542 76.3253 178.542 75.504C178.542 74.672 178.552 73.8613 178.574 73.072C178.414 73.0933 178.232 73.1093 178.03 73.12C177.838 73.12 177.64 73.1253 177.438 73.136C177.246 73.1467 177.054 73.1573 176.862 73.168C176.68 73.168 176.52 73.1733 176.382 73.184L175.998 73.216C175.998 74.368 175.886 75.44 175.662 76.432C175.448 77.4133 175.16 78.304 174.798 79.104C174.712 79.2853 174.611 79.472 174.494 79.664C174.387 79.8453 174.259 80.0107 174.11 80.16C173.971 80.3093 173.811 80.4267 173.63 80.512C173.448 80.608 173.246 80.656 173.022 80.656C172.926 80.656 172.84 80.64 172.766 80.608C172.702 80.5867 172.67 80.5013 172.67 80.352C172.67 80.1707 172.68 80.0587 172.702 80.016C172.723 79.9733 172.798 79.952 172.926 79.952C172.947 79.952 172.968 79.9573 172.99 79.968C173.011 79.968 173.032 79.968 173.054 79.968C173.267 79.968 173.454 79.8613 173.614 79.648C173.774 79.4347 173.944 79.1467 174.126 78.784ZM190.923 80C190.71 80 190.417 79.7387 190.043 79.216C189.681 78.6827 189.222 77.9627 188.667 77.056L188.475 76.736C188.262 77.12 188.086 77.4453 187.947 77.712C187.819 77.968 187.691 78.256 187.563 78.576C187.35 79.088 187.243 79.392 187.243 79.488C187.243 79.6373 187.318 79.712 187.467 79.712C187.499 79.712 187.553 79.6853 187.627 79.632C187.702 79.5787 187.755 79.552 187.787 79.552C187.841 79.552 187.889 79.568 187.931 79.6C187.974 79.632 187.995 79.6693 187.995 79.712C187.995 79.776 187.915 79.8827 187.755 80.032C187.595 80.1813 187.414 80.3147 187.211 80.432C187.019 80.5493 186.865 80.608 186.747 80.608C186.662 80.608 186.587 80.5333 186.523 80.384C186.459 80.2453 186.427 80.096 186.427 79.936C186.427 79.648 186.545 79.248 186.779 78.736C187.025 78.2133 187.387 77.4933 187.867 76.576L188.123 76.112C187.91 75.6533 187.622 75.0773 187.259 74.384C186.907 73.68 186.593 73.104 186.315 72.656C186.155 72.3787 186.075 72.112 186.075 71.856C186.075 71.7493 186.086 71.6747 186.107 71.632C186.139 71.5893 186.182 71.568 186.235 71.568C186.331 71.568 186.433 71.6213 186.539 71.728C186.646 71.824 186.774 72 186.923 72.256C187.403 73.024 187.942 74.0533 188.539 75.344C188.582 75.2693 188.705 75.056 188.907 74.704C189.238 74.1067 189.563 73.5573 189.883 73.056C190.107 72.736 190.278 72.5227 190.395 72.416C190.523 72.3093 190.699 72.256 190.923 72.256C191.233 72.256 191.387 72.3413 191.387 72.512C191.387 72.5547 191.371 72.592 191.339 72.624C191.307 72.6453 191.233 72.688 191.115 72.752C191.009 72.8053 190.897 72.8907 190.779 73.008C190.598 73.1893 190.315 73.5787 189.931 74.176C189.547 74.7627 189.185 75.3707 188.843 76C189.078 76.448 189.35 76.9013 189.659 77.36C189.979 77.808 190.262 78.1813 190.507 78.48C190.763 78.768 190.923 78.912 190.987 78.912C191.137 78.912 191.259 78.7733 191.355 78.496C191.377 78.4213 191.403 78.3413 191.435 78.256C191.478 78.1707 191.526 78.128 191.579 78.128C191.707 78.128 191.771 78.1867 191.771 78.304C191.771 78.4427 191.723 78.6507 191.627 78.928C191.531 79.2053 191.419 79.456 191.291 79.68C191.163 79.8933 191.041 80 190.923 80ZM199.725 79.408C199.725 79.536 199.671 79.6853 199.565 79.856C199.458 80.016 199.351 80.096 199.245 80.096C199.063 80.096 198.925 79.984 198.829 79.76C198.733 79.536 198.685 79.2747 198.685 78.976C198.685 78.72 198.701 77.952 198.733 76.672L198.749 76.064C198.749 75.8187 198.685 75.6427 198.557 75.536C198.077 76.3467 197.629 77.0507 197.213 77.648C196.797 78.2453 196.269 78.8107 195.629 79.344C194.989 79.8667 194.317 80.128 193.613 80.128C193.271 80.128 193.005 80.0213 192.813 79.808C192.631 79.5947 192.541 79.3173 192.541 78.976C192.541 78.5493 192.733 77.968 193.117 77.232C193.501 76.4853 193.991 75.7333 194.589 74.976C195.186 74.208 195.783 73.5787 196.381 73.088C196.775 72.768 197.09 72.5547 197.325 72.448C197.559 72.3307 197.767 72.272 197.949 72.272C198.119 72.272 198.295 72.3253 198.477 72.432C198.658 72.5387 198.813 72.688 198.941 72.88C199.069 73.072 199.133 73.2907 199.133 73.536C199.133 73.8667 199.042 74.1813 198.861 74.48L199.133 74.4C199.25 74.4 199.319 74.544 199.341 74.832C199.351 75.0027 199.362 75.3493 199.373 75.872C199.394 76.3947 199.41 76.8267 199.421 77.168C199.431 77.52 199.442 77.8613 199.453 78.192C199.463 78.5227 199.474 78.784 199.485 78.976C199.495 79.0507 199.538 79.1307 199.613 79.216C199.687 79.2907 199.725 79.3547 199.725 79.408ZM198.333 74.912C198.461 74.592 198.525 74.2453 198.525 73.872C198.525 73.648 198.455 73.456 198.317 73.296C198.189 73.1253 198.013 73.04 197.789 73.04C197.522 73.04 197.181 73.2213 196.765 73.584C196.285 73.9893 195.778 74.5333 195.245 75.216C194.711 75.888 194.269 76.5547 193.917 77.216C193.565 77.8773 193.389 78.4 193.389 78.784C193.389 79.104 193.538 79.264 193.837 79.264C194.413 79.264 194.967 79.0507 195.501 78.624C196.034 78.1973 196.509 77.6907 196.925 77.104C197.351 76.5067 197.821 75.776 198.333 74.912ZM202.881 80.096C202.679 80.096 202.471 80.064 202.257 80C202.055 79.9467 201.868 79.8507 201.697 79.712C201.537 79.5627 201.404 79.376 201.297 79.152C201.201 78.9173 201.153 78.624 201.153 78.272C201.153 77.7493 201.228 77.2 201.377 76.624C201.537 76.048 201.761 75.504 202.049 74.992C202.337 74.4693 202.684 74.0107 203.089 73.616C203.495 73.2213 203.953 72.9333 204.465 72.752C204.561 72.72 204.663 72.704 204.769 72.704C204.951 72.704 205.1 72.768 205.217 72.896C205.335 73.0133 205.393 73.1787 205.393 73.392C205.393 73.5413 205.361 73.648 205.297 73.712C205.233 73.7653 205.185 73.792 205.153 73.792L205.137 73.776C205.02 73.68 204.913 73.616 204.817 73.584C204.732 73.5413 204.647 73.52 204.561 73.52C204.295 73.5307 204.001 73.6747 203.681 73.952C203.372 74.2293 203.084 74.592 202.817 75.04C202.551 75.488 202.327 75.9947 202.145 76.56C201.964 77.1253 201.873 77.7013 201.873 78.288C201.873 78.4267 201.889 78.5707 201.921 78.72C201.953 78.8693 202.007 79.0027 202.081 79.12C202.167 79.2373 202.279 79.3387 202.417 79.424C202.556 79.4987 202.737 79.536 202.961 79.536C203.367 79.536 203.735 79.424 204.065 79.2C204.396 78.9653 204.689 78.6667 204.945 78.304C205.201 77.9413 205.42 77.536 205.601 77.088C205.783 76.6293 205.932 76.176 206.049 75.728C206.177 75.28 206.268 74.8533 206.321 74.448C206.375 74.0427 206.401 73.712 206.401 73.456C206.401 72.6667 206.284 71.9947 206.049 71.44C205.815 70.8853 205.516 70.4213 205.153 70.048C204.801 69.6747 204.407 69.376 203.969 69.152C203.543 68.9173 203.137 68.7307 202.753 68.592C202.625 68.5387 202.535 68.5013 202.481 68.48C202.428 68.448 202.401 68.3893 202.401 68.304C202.401 68.2613 202.433 68.208 202.497 68.144C202.561 68.08 202.641 68.048 202.737 68.048C202.833 68.048 202.951 68.0747 203.089 68.128C203.633 68.2987 204.151 68.512 204.641 68.768C205.132 69.0133 205.559 69.3333 205.921 69.728C206.295 70.1227 206.588 70.6027 206.801 71.168C207.015 71.7227 207.121 72.3947 207.121 73.184C207.121 73.6 207.084 74.0587 207.009 74.56C206.945 75.0613 206.839 75.568 206.689 76.08C206.551 76.592 206.369 77.0933 206.145 77.584C205.921 78.064 205.649 78.4907 205.329 78.864C205.02 79.2373 204.657 79.536 204.241 79.76C203.836 79.984 203.383 80.096 202.881 80.096ZM215.765 78.224V78.464C215.786 78.816 215.781 79.1307 215.749 79.408C215.728 79.6427 215.674 79.856 215.589 80.048C215.514 80.24 215.397 80.336 215.237 80.336C215.152 80.336 215.077 80.2987 215.013 80.224C214.949 80.1493 214.896 80.0693 214.853 79.984C214.81 79.888 214.778 79.7973 214.757 79.712C214.736 79.6267 214.725 79.5733 214.725 79.552C214.725 79.4347 214.736 79.28 214.757 79.088C214.778 78.896 214.8 78.6987 214.821 78.496C214.842 78.2827 214.864 78.0747 214.885 77.872C214.917 77.6693 214.944 77.488 214.965 77.328C215.018 76.8053 215.056 76.336 215.077 75.92C215.098 75.4933 215.12 75.0933 215.141 74.72C215.024 75.104 214.885 75.4667 214.725 75.808C214.565 76.1387 214.384 76.432 214.181 76.688C213.978 76.9333 213.749 77.1307 213.493 77.28C213.248 77.4293 212.976 77.504 212.677 77.504C212.368 77.504 212.074 77.4187 211.797 77.248C211.52 77.0667 211.264 76.832 211.029 76.544C210.794 76.256 210.586 75.9307 210.405 75.568C210.234 75.1947 210.096 74.816 209.989 74.432C209.978 74.8587 209.962 75.232 209.941 75.552C209.93 75.872 209.92 76.1813 209.909 76.48C209.898 76.7787 209.888 77.0933 209.877 77.424C209.877 77.744 209.877 78.1227 209.877 78.56C209.877 78.7627 209.893 78.9387 209.925 79.088C209.968 79.2373 210.005 79.376 210.037 79.504C210.08 79.6213 210.117 79.7387 210.149 79.856C210.192 79.9627 210.213 80.0853 210.213 80.224C210.213 80.32 210.17 80.4267 210.085 80.544C210 80.672 209.866 80.736 209.685 80.736C209.6 80.736 209.525 80.672 209.461 80.544C209.397 80.4267 209.344 80.2773 209.301 80.096C209.258 79.9253 209.226 79.744 209.205 79.552C209.184 79.36 209.173 79.2 209.173 79.072V78.912L209.237 77.584C209.237 77.4667 209.242 77.3173 209.253 77.136C209.264 76.9547 209.274 76.7733 209.285 76.592C209.296 76.4 209.306 76.224 209.317 76.064C209.328 75.8933 209.333 75.76 209.333 75.664C209.312 75.216 209.285 74.7893 209.253 74.384C209.232 73.9787 209.21 73.5947 209.189 73.232L209.173 72.816C209.162 72.6987 209.21 72.6027 209.317 72.528C209.434 72.4427 209.568 72.3947 209.717 72.384C209.802 72.384 209.872 72.4373 209.925 72.544C209.968 72.5013 210.021 72.4693 210.085 72.448C210.149 72.4267 210.202 72.416 210.245 72.416C210.298 72.416 210.325 72.4267 210.325 72.448C210.336 72.4693 210.352 72.496 210.373 72.528C210.373 72.5387 210.389 72.6507 210.421 72.864C210.453 73.0773 210.501 73.3387 210.565 73.648C210.629 73.9573 210.714 74.288 210.821 74.64C210.928 74.992 211.061 75.3227 211.221 75.632C211.381 75.9307 211.573 76.1813 211.797 76.384C212.021 76.5867 212.282 76.688 212.581 76.688C212.901 76.688 213.205 76.5707 213.493 76.336C213.781 76.0907 214.032 75.7813 214.245 75.408C214.469 75.024 214.645 74.608 214.773 74.16C214.901 73.7013 214.965 73.2533 214.965 72.816V72.608C214.965 72.3093 214.986 72.1013 215.029 71.984C215.072 71.856 215.12 71.792 215.173 71.792C215.216 71.792 215.248 71.8027 215.269 71.824C215.269 71.6747 215.264 71.5627 215.253 71.488C215.253 71.4027 215.253 71.328 215.253 71.264C215.253 71.1787 215.306 71.104 215.413 71.04C215.52 70.976 215.632 70.944 215.749 70.944C215.92 70.944 216.005 71.1093 216.005 71.44C216.005 71.4933 216 71.5733 215.989 71.68C215.989 71.776 215.978 71.9413 215.957 72.176C215.925 72.9973 215.898 73.712 215.877 74.32C215.866 74.9173 215.856 75.4507 215.845 75.92C215.834 76.3787 215.824 76.7947 215.813 77.168C215.802 77.5307 215.786 77.8827 215.765 78.224ZM224.897 79.408C224.897 79.536 224.843 79.6853 224.737 79.856C224.63 80.016 224.523 80.096 224.417 80.096C224.235 80.096 224.097 79.984 224.001 79.76C223.905 79.536 223.857 79.2747 223.857 78.976C223.857 78.72 223.873 77.952 223.905 76.672L223.921 76.064C223.921 75.8187 223.857 75.6427 223.729 75.536C223.249 76.3467 222.801 77.0507 222.385 77.648C221.969 78.2453 221.441 78.8107 220.801 79.344C220.161 79.8667 219.489 80.128 218.785 80.128C218.443 80.128 218.177 80.0213 217.985 79.808C217.803 79.5947 217.713 79.3173 217.713 78.976C217.713 78.5493 217.905 77.968 218.289 77.232C218.673 76.4853 219.163 75.7333 219.761 74.976C220.358 74.208 220.955 73.5787 221.553 73.088C221.947 72.768 222.262 72.5547 222.497 72.448C222.731 72.3307 222.939 72.272 223.121 72.272C223.291 72.272 223.467 72.3253 223.649 72.432C223.83 72.5387 223.985 72.688 224.113 72.88C224.241 73.072 224.305 73.2907 224.305 73.536C224.305 73.8667 224.214 74.1813 224.033 74.48L224.305 74.4C224.422 74.4 224.491 74.544 224.513 74.832C224.523 75.0027 224.534 75.3493 224.545 75.872C224.566 76.3947 224.582 76.8267 224.593 77.168C224.603 77.52 224.614 77.8613 224.625 78.192C224.635 78.5227 224.646 78.784 224.657 78.976C224.667 79.0507 224.71 79.1307 224.785 79.216C224.859 79.2907 224.897 79.3547 224.897 79.408ZM223.505 74.912C223.633 74.592 223.697 74.2453 223.697 73.872C223.697 73.648 223.627 73.456 223.489 73.296C223.361 73.1253 223.185 73.04 222.961 73.04C222.694 73.04 222.353 73.2213 221.937 73.584C221.457 73.9893 220.95 74.5333 220.417 75.216C219.883 75.888 219.441 76.5547 219.089 77.216C218.737 77.8773 218.561 78.4 218.561 78.784C218.561 79.104 218.71 79.264 219.009 79.264C219.585 79.264 220.139 79.0507 220.673 78.624C221.206 78.1973 221.681 77.6907 222.097 77.104C222.523 76.5067 222.993 75.776 223.505 74.912ZM227.141 78.784C227.355 78.3467 227.531 77.872 227.669 77.36C227.808 76.848 227.92 76.3413 228.005 75.84C228.091 75.3387 228.149 74.864 228.181 74.416C228.224 73.968 228.256 73.584 228.277 73.264L227.621 73.312C227.323 73.312 227.173 73.2 227.173 72.976C227.173 72.7947 227.269 72.6933 227.461 72.672L228.005 72.576C228.048 72.576 228.091 72.576 228.133 72.576C228.187 72.5653 228.24 72.56 228.293 72.56V72.416C228.315 72.3413 228.357 72.2827 228.421 72.24C228.485 72.1867 228.56 72.16 228.645 72.16C228.795 72.16 228.912 72.2347 228.997 72.384V72.544C229.328 72.5333 229.733 72.5173 230.213 72.496C230.693 72.4747 231.163 72.4373 231.621 72.384V72.352C231.621 72.1707 231.653 72.0373 231.717 71.952C231.792 71.856 231.877 71.808 231.973 71.808C232.059 71.808 232.139 71.8507 232.213 71.936C232.299 72.0107 232.341 72.128 232.341 72.288C232.437 72.2773 232.533 72.272 232.629 72.272C232.725 72.272 232.8 72.272 232.853 72.272C233.045 72.272 233.141 72.352 233.141 72.512C233.141 72.6613 233.099 72.8053 233.013 72.944C232.939 73.072 232.832 73.136 232.693 73.136C232.64 73.136 232.581 73.1253 232.517 73.104C232.464 73.0827 232.405 73.072 232.341 73.072V73.36C232.341 74.2133 232.341 75.008 232.341 75.744C232.341 76.4693 232.347 77.1147 232.357 77.68C232.368 78.2347 232.389 78.6987 232.421 79.072C232.464 79.4347 232.528 79.68 232.613 79.808C232.656 79.8933 232.677 79.984 232.677 80.08C232.677 80.1333 232.629 80.208 232.533 80.304C232.448 80.4 232.299 80.448 232.085 80.448C231.947 80.448 231.845 80.4107 231.781 80.336C231.728 80.2613 231.691 80.1653 231.669 80.048V80.064C231.605 79.7547 231.568 79.4453 231.557 79.136C231.557 78.816 231.557 78.5013 231.557 78.192C231.557 77.2213 231.557 76.3253 231.557 75.504C231.557 74.672 231.568 73.8613 231.589 73.072C231.429 73.0933 231.248 73.1093 231.045 73.12C230.853 73.12 230.656 73.1253 230.453 73.136C230.261 73.1467 230.069 73.1573 229.877 73.168C229.696 73.168 229.536 73.1733 229.397 73.184L229.013 73.216C229.013 74.368 228.901 75.44 228.677 76.432C228.464 77.4133 228.176 78.304 227.813 79.104C227.728 79.2853 227.627 79.472 227.509 79.664C227.403 79.8453 227.275 80.0107 227.125 80.16C226.987 80.3093 226.827 80.4267 226.645 80.512C226.464 80.608 226.261 80.656 226.037 80.656C225.941 80.656 225.856 80.64 225.781 80.608C225.717 80.5867 225.685 80.5013 225.685 80.352C225.685 80.1707 225.696 80.0587 225.717 80.016C225.739 79.9733 225.813 79.952 225.941 79.952C225.963 79.952 225.984 79.9573 226.005 79.968C226.027 79.968 226.048 79.968 226.069 79.968C226.283 79.968 226.469 79.8613 226.629 79.648C226.789 79.4347 226.96 79.1467 227.141 78.784Z" fill="white"/>
</svg>
